<?xml version="1.0" encoding="UTF-8" standalone="no"?>
<svg
   xmlns:dc="http://purl.org/dc/elements/1.1/"
   xmlns:cc="http://creativecommons.org/ns#"
   xmlns:rdf="http://www.w3.org/1999/02/22-rdf-syntax-ns#"
   xmlns:svg="http://www.w3.org/2000/svg"
   xmlns="http://www.w3.org/2000/svg"
   xmlns:sodipodi="http://sodipodi.sourceforge.net/DTD/sodipodi-0.dtd"
   xmlns:inkscape="http://www.inkscape.org/namespaces/inkscape"
   width="22"
   height="16"
   version="1.1"
   id="svg10"
   sodipodi:docname="battery-level-40-symbolic.svg"
   inkscape:version="1.0.1 (3bc2e813f5, 2020-09-07)">
  <metadata
     id="metadata16">
    <rdf:RDF>
      <cc:Work
         rdf:about="">
        <dc:format>image/svg+xml</dc:format>
        <dc:type
           rdf:resource="http://purl.org/dc/dcmitype/StillImage" />
      </cc:Work>
    </rdf:RDF>
  </metadata>
  <defs
     id="defs14" />
  <sodipodi:namedview
     pagecolor="#ffffff"
     bordercolor="#666666"
     borderopacity="1"
     objecttolerance="10"
     gridtolerance="10"
     guidetolerance="10"
     inkscape:pageopacity="0"
     inkscape:pageshadow="2"
     inkscape:window-width="2160"
     inkscape:window-height="1277"
     id="namedview12"
     showgrid="false"
     inkscape:zoom="45.9375"
     inkscape:cx="11"
     inkscape:cy="8"
     inkscape:window-x="0"
     inkscape:window-y="30"
     inkscape:window-maximized="1"
     inkscape:current-layer="svg10"
     inkscape:document-rotation="0" />
  <rect
     x="3"
     y="5"
     width="5"
     height="6"
     rx="0"
     ry="0"
     stroke-width="0.999982"
     style="fill:#FFFFFF;fill-rule:evenodd;paint-order:stroke fill markers"
     id="rect2" />
  <path
     d="M 3,3 C 1.892,3 1,3.892 1,5 v 6 c 0,1.108 0.892,2 2,2 h 13 c 1.108,0 2,-0.892 2,-2 V 5 C 18,3.892 17.108,3 16,3 Z m 0,1 h 13 c 0.554,0 1,0.446 1,1 v 6 c 0,0.554 -0.446,1 -1,1 H 3 C 2.446,12 2,11.554 2,11 V 5 C 2,4.446 2.446,4 3,4 Z"
     enable-background="new"
     style="fill:#FFFFFF;fill-rule:evenodd;paint-order:stroke fill markers"
     id="path4" />
  <path
     d="m 19,6 v 4 A 2,2 0 0 0 21,8 2,2 0 0 0 19,6 Z"
     enable-background="new"
     style="fill:#FFFFFF;fill-rule:evenodd;paint-order:stroke fill markers"
     id="path6" />
</svg>
