<?xml version="1.0" encoding="UTF-8" standalone="no"?>
<svg
   xmlns:dc="http://purl.org/dc/elements/1.1/"
   xmlns:cc="http://creativecommons.org/ns#"
   xmlns:rdf="http://www.w3.org/1999/02/22-rdf-syntax-ns#"
   xmlns:svg="http://www.w3.org/2000/svg"
   xmlns="http://www.w3.org/2000/svg"
   xmlns:sodipodi="http://sodipodi.sourceforge.net/DTD/sodipodi-0.dtd"
   xmlns:inkscape="http://www.inkscape.org/namespaces/inkscape"
   width="22"
   height="16"
   version="1.1"
   id="svg14"
   sodipodi:docname="battery-level-50-charging-symbolic.svg"
   inkscape:version="1.0.1 (3bc2e813f5, 2020-09-07)">
  <metadata
     id="metadata20">
    <rdf:RDF>
      <cc:Work
         rdf:about="">
        <dc:format>image/svg+xml</dc:format>
        <dc:type
           rdf:resource="http://purl.org/dc/dcmitype/StillImage" />
      </cc:Work>
    </rdf:RDF>
  </metadata>
  <defs
     id="defs18" />
  <sodipodi:namedview
     pagecolor="#ffffff"
     bordercolor="#666666"
     borderopacity="1"
     objecttolerance="10"
     gridtolerance="10"
     guidetolerance="10"
     inkscape:pageopacity="0"
     inkscape:pageshadow="2"
     inkscape:window-width="2160"
     inkscape:window-height="1277"
     id="namedview16"
     showgrid="false"
     inkscape:zoom="45.9375"
     inkscape:cx="11"
     inkscape:cy="8"
     inkscape:window-x="0"
     inkscape:window-y="30"
     inkscape:window-maximized="1"
     inkscape:current-layer="svg14" />
  <path
     d="M 3.6161086,5 C 3.2746114,5 3.00004,5.24253 3.00004,5.54492 v 4.9102 c 0,0.3024 0.2745714,0.54492 0.6160686,0.54492 h 5.0625142 l 0.2857144,-1 H 6.9999942 A 1.1429714,1.0001 0 0 1 6.0491028,8.44534 L 8.6741314,5.00004 H 3.6160742 Z m 5.8616,2.5527 -0.34152,0.44727 H 10.410703 A 1.1429714,1.0001 0 0 1 9.4776628,7.5527 Z M 10.446463,7.99997 A 1.1429714,1.0001 0 0 1 11.00004,8.13669 V 7.99997 Z"
     fill="#39bb5e"
     stroke-width="1.2649"
     style="paint-order:stroke fill markers"
     id="path2" />
  <g
     transform="translate(1)"
     fill="#FFFFFF"
     id="g12">
    <g
       fill-rule="evenodd"
       id="g8">
      <path
         d="m2 3c-1.108 0-2 0.892-2 2v6c0 1.108 0.892 2 2 2h13c1.108 0 2-0.892 2-2v-6c0-1.108-0.892-2-2-2zm0 1h13c0.554 0 1 0.446 1 1v6c0 0.554-0.446 1-1 1h-13c-0.554 0-1-0.446-1-1v-6c0-0.554 0.446-1 1-1z"
         enable-background="new"
         style="paint-order:stroke fill markers"
         id="path4" />
      <path
         d="m18 6v4a2 2 0 0 0 2-2 2 2 0 0 0-2-2z"
         enable-background="new"
         style="paint-order:stroke fill markers"
         id="path6" />
    </g>
    <path
       d="m8.834 4-3.334 5h3l-0.75 3h0.41602l3.334-5h-3l0.75-3z"
       enable-background="new"
       id="path10" />
  </g>
</svg>
