<?xml version="1.0" encoding="UTF-8" standalone="no"?>
<svg
   xmlns:dc="http://purl.org/dc/elements/1.1/"
   xmlns:cc="http://creativecommons.org/ns#"
   xmlns:rdf="http://www.w3.org/1999/02/22-rdf-syntax-ns#"
   xmlns:svg="http://www.w3.org/2000/svg"
   xmlns="http://www.w3.org/2000/svg"
   xmlns:sodipodi="http://sodipodi.sourceforge.net/DTD/sodipodi-0.dtd"
   xmlns:inkscape="http://www.inkscape.org/namespaces/inkscape"
   width="16"
   height="16"
   version="1.1"
   id="svg8"
   sodipodi:docname="system-shutdown-symbolic.svg"
   inkscape:version="1.0.1 (3bc2e813f5, 2020-09-07)">
  <metadata
     id="metadata14">
    <rdf:RDF>
      <cc:Work
         rdf:about="">
        <dc:format>image/svg+xml</dc:format>
        <dc:type
           rdf:resource="http://purl.org/dc/dcmitype/StillImage" />
      </cc:Work>
    </rdf:RDF>
  </metadata>
  <defs
     id="defs12" />
  <sodipodi:namedview
     pagecolor="#ffffff"
     bordercolor="#ffffff"
     borderopacity="1"
     objecttolerance="10"
     gridtolerance="10"
     guidetolerance="10"
     inkscape:pageopacity="0"
     inkscape:pageshadow="2"
     inkscape:window-width="760"
     inkscape:window-height="490"
     id="namedview10"
     showgrid="false"
     inkscape:zoom="45.9375"
     inkscape:cx="8"
     inkscape:cy="8"
     inkscape:window-x="1238"
     inkscape:window-y="713"
     inkscape:window-maximized="0"
     inkscape:current-layer="svg8" />
  <g
     fill="#ffffff"
     id="g6"
     transform="translate(0.50038911,0.498)">
    <path
       d="m 1,7.43 c -0.01,0.68 0.088,1.37 0.3,2.043 0.854,2.696 3.366,4.531 6.2,4.531 2.834,0 5.346,-1.835 6.2,-4.531 A 6.47,6.47 0 0 0 11.228,2.217 l -0.572,0.82 c 1.968,1.374 2.812,3.853 2.09,6.135 -0.722,2.282 -2.843,3.832 -5.246,3.832 -2.403,0 -4.524,-1.55 -5.246,-3.832 C 1.532,6.89 2.376,4.411 4.344,3.037 L 3.771,2.217 A 6.477,6.477 0 0 0 1,7.43 Z"
       id="path2" />
    <path
       d="M 7,1 V 8 H 8 V 1 Z"
       id="path4" />
  </g>
</svg>
